<svg width="24" height="14" viewBox="0 0 24 14" fill="none" xmlns="http://www.w3.org/2000/svg">
<path fill-rule="evenodd" clip-rule="evenodd" d="M16.1914 1.00913C16.6884 0.512095 17.4943 0.512095 17.9913 1.00913L23.0814 6.09929L23.0822 6.10003C23.2043 6.22206 23.2963 6.3627 23.3584 6.51281C23.4206 6.66287 23.455 6.82742 23.455 6.99999C23.455 7.17187 23.4209 7.3358 23.3592 7.48538C23.3285 7.5597 23.2906 7.63169 23.2452 7.70028C23.1987 7.77085 23.1443 7.83781 23.0822 7.89995L23.0814 7.90069L17.9913 12.9909C17.4943 13.4878 16.6884 13.4878 16.1914 12.9909C15.6944 12.4938 15.6944 11.688 16.1914 11.1909L19.1096 8.27272H1.81863C1.11572 8.27272 0.545898 7.70289 0.545898 6.99999C0.545898 6.29709 1.11572 5.72726 1.81863 5.72726H19.1096L16.1914 2.80904C15.6944 2.312 15.6944 1.50616 16.1914 1.00913Z" fill="#03A9F4"/>
</svg>
